<svg xmlns="http://www.w3.org/2000/svg" viewBox="0 0 35.9 35.9"><style type="text/css">
	.st0{fill:#1D1C1A;}
</style><path class="st0" d="M17.9 0C8 0 0 8 0 17.9c0 9.9 8 17.9 17.9 17.9 9.9 0 17.9-8 17.9-17.9C35.9 8 27.8 0 17.9 0zM17.9 32.4c-8 0-14.5-6.5-14.5-14.5S9.9 3.4 17.9 3.4c8 0 14.5 6.5 14.5 14.5S26 32.4 17.9 32.4z"/><path d="M24.8 23.1l-5.2-5.2v-7.5c0-0.9-0.7-1.7-1.7-1.7s-1.7 0.7-1.7 1.7v8c0 0 0 0 0 0.1 0 0.5 0.2 0.9 0.5 1.3l5.7 5.7c0.3 0.3 0.7 0.5 1.2 0.5 0 0 0 0 0 0 0.4 0 0.9-0.2 1.2-0.5 0.3-0.3 0.5-0.7 0.5-1.2C25.3 23.8 25.1 23.4 24.8 23.1z"/></svg>