<svg xmlns="http://www.w3.org/2000/svg" viewBox="0 0 36.3 39.8" width="36.3" height="39.8"><path d="M33.5 16.5c-1.1-.3-2.2-.2-3.2.1v-1.9c0-.6-.4-1-1-1h-24c-.6 0-1 .4-1 1v1.7c0 7.7 6.8 16.6 7.1 16.9l.3.3c.1 0 2 1 5.6 1 3.6 0 5.5-.9 5.6-1 .1-.1.3-.2.3-.3.1-.2 1.7-2.2 3.3-5 5.1-.3 8.9-2.7 9.6-6.3.6-2.8-.4-4.9-2.6-5.5zM21.8 31.9c-.5.2-2 .7-4.5.7s-4-.5-4.5-.7c-1-1.4-6.5-9.1-6.5-15.5v-.7h22v.7c0 6.4-5.5 14.2-6.5 15.5zm12.3-10.2c-.5 2.4-3 4.1-6.5 4.6 1-2.1 2-4.5 2.4-7 .1-.2.3-.4.7-.7.7-.4 1.5-.4 2.3-.2 1.5.4 1.3 2.4 1.1 3.3zm.5 12.8c0 3.6-9 5.3-17.3 5.3S0 38.1 0 34.5c0-1.8 2-3.1 6-4.1.5-.1 1.1.2 1.2.7s-.2 1.1-.7 1.2c-3.4.8-4.5 1.8-4.5 2.2 0 1 5.2 3.3 15.3 3.3s15.3-2.3 15.3-3.3c0-.4-1.1-1.4-4.5-2.2-.5-.1-.9-.7-.7-1.2.1-.5.7-.9 1.2-.7 4 .9 6 2.3 6 4.1zM22.4 6.7c-1-1.3-2.4-3.2.8-6.4.4-.4 1-.4 1.4 0 .4.4.4 1 0 1.4-2 2-1.5 2.7-.6 3.9.9 1.2 2.3 3-.2 6-.2.2-.5.4-.8.4-.2 0-.4-.1-.6-.2-.4-.3-.5-1-.1-1.4 1.4-1.9 1-2.5.1-3.7zm-11.2 0c-1-1.3-2.4-3.2.8-6.4.4-.4 1-.4 1.4 0 .4.4.4 1 0 1.4-2 2-1.5 2.7-.6 3.9.9 1.2 2.3 3-.2 6-.2.2-.5.4-.8.4-.2 0-.4-.1-.6-.2-.4-.3-.5-1-.1-1.4 1.5-1.9 1-2.5.1-3.7zm5.6 0c-1-1.3-2.4-3.2.8-6.4.4-.4 1-.4 1.4 0 .4.4.4 1 0 1.4-2 2-1.5 2.7-.6 3.9.9 1.2 2.3 3-.2 6-.2.2-.5.4-.8.4-.2 0-.4-.1-.6-.2-.4-.3-.5-1-.1-1.4 1.5-1.9 1-2.5.1-3.7z"/></svg>