<svg xmlns="http://www.w3.org/2000/svg" viewBox="0 0 36.3 39.8" width="36.3" height="39.8"><path d="M29.1 0c-3.6 0-6.6 2.7-7.1 6.2H1c-.4 0-.7.2-.9.6-.2.3-.1.8.1 1.1l13.8 16v14H9.4c-.6 0-1 .4-1 1s.4 1 1 1h11.3c.6 0 1-.4 1-1s-.4-1-1-1H16v-14l9.1-10.6c1.1.7 2.5 1.2 3.9 1.2 4 0 7.2-3.2 7.2-7.2S33 0 29.1 0zm-2.2 8.2L24 11.6H6.1L3.2 8.2h23.7zM15 21.9l-7.2-8.3h14.4L15 21.9zm14.1-9.5c-.9 0-1.8-.3-2.6-.7l3.3-3.8c.3-.3.3-.7.2-1.1-.2-.4-.5-.6-.9-.6H24c.4-2.4 2.5-4.2 5.1-4.2 2.9 0 5.2 2.3 5.2 5.2 0 2.9-2.4 5.2-5.2 5.2z"/></svg>