<svg xmlns="http://www.w3.org/2000/svg" viewBox="0 0 36.3 39.8" width="36.3" height="39.8"><metadata><?xpacket begin="﻿" id="W5M0MpCehiHzreSzNTczkc9d"?>
<x:xmpmeta xmlns:x="adobe:ns:meta/" x:xmptk="Adobe XMP Core 5.6-c137 79.159768, 2016/08/11-13:24:42        ">
   <rdf:RDF xmlns:rdf="http://www.w3.org/1999/02/22-rdf-syntax-ns#">
      <rdf:Description rdf:about=""/>
   </rdf:RDF>
</x:xmpmeta>
                                                                                                    
                                                                                                    
                                                                                                    
                                                                                                    
                                                                                                    
                                                                                                    
                                                                                                    
                                                                                                    
                                                                                                    
                                                                                                    
                                                                                                    
                                                                                                    
                                                                                                    
                                                                                                    
                                                                                                    
                                                                                                    
                                                                                                    
                                                                                                    
                                                                                                    
                                                                                                    
                           
<?xpacket end="w"?></metadata>
<path d="M31 5.9C29.1 1.7 26.3-.3 25 0c-.5.1-.9.5-.9 1.1V22c0 .1-.1 5.1 0 9.2.1 4.6.2 8.6 3.3 8.6.8 0 1.6-.3 2.1-1 2-2.4 1.2-8.6.4-14.3-.1-.5-.1-.9-.2-1.2v-.4c1.5 0 2.3-.5 2.6-1.5C33 18 33 10.5 31 5.9zm-.6 15c-.1 0-.4.1-1 0h-.3c-.4 0-.7.1-.9.4-.4.4-.5 1.1-.3 2.3.1.3.1.8.2 1.2.5 3.2 1.7 10.8.1 12.7-.2.2-.3.3-.6.3-1.1 0-1.2-3.5-1.3-6.6-.1-4.1 0-9.1 0-9.1V2.6c.8.6 2 1.9 3 4.2C31 11 30.9 18 30.4 20.9zm-14.2-19v8.8c0 3.5-2 5.6-3 6.8-.2.2-.5.6-.6.7-.1.3-.5 2.1-.1 4.6 1.3 8.6 1.1 13.9-.7 16-.6.7-1.3 1-2.2 1s-1.6-.4-2.2-1c-1.7-2-2-7.4-.7-16 .4-2.5 0-4.3-.1-4.6 0 0-.2-.3-.4-.4-1-1-2.8-2.9-2.8-7V1.9c0-.6.4-1 1-1s1 .4 1 1v8.8c0 3.3 1.3 4.7 2.2 5.6.4.4.8.8.9 1.4.1.6.6 2.6.1 5.4-1.5 11.1 0 13.8.4 14.4.4.4.9.4 1.3 0 .5-.6 1.9-3.2.2-14.4-.4-2.8 0-4.9.1-5.4s.5-.9 1-1.5c1-1.1 2.5-2.7 2.5-5.4V1.9c0-.6.4-1 1-1s1.1.5 1.1 1zm-9.1 8.8V1.9c0-.6.4-1 1-1s1 .4 1 1v8.8c0 .6-.4 1-1 1s-1-.4-1-1zm3.5 0V1.9c0-.6.4-1 1-1s1 .4 1 1v8.8c0 .6-.4 1-1 1s-1-.4-1-1z"/></svg>