<svg xmlns="http://www.w3.org/2000/svg" width="108" height="151.9" viewBox="0 0 108 151.9"><metadata><?xpacket begin="﻿" id="W5M0MpCehiHzreSzNTczkc9d"?>
<x:xmpmeta xmlns:x="adobe:ns:meta/" x:xmptk="Adobe XMP Core 5.6-c137 79.159768, 2016/08/11-13:24:42        ">
   <rdf:RDF xmlns:rdf="http://www.w3.org/1999/02/22-rdf-syntax-ns#">
      <rdf:Description rdf:about=""/>
   </rdf:RDF>
</x:xmpmeta>
                                                                                                    
                                                                                                    
                                                                                                    
                                                                                                    
                                                                                                    
                                                                                                    
                                                                                                    
                                                                                                    
                                                                                                    
                                                                                                    
                                                                                                    
                                                                                                    
                                                                                                    
                                                                                                    
                                                                                                    
                                                                                                    
                                                                                                    
                                                                                                    
                                                                                                    
                                                                                                    
                           
<?xpacket end="w"?></metadata>
<path d="M107.9 7.6c.4-1.9-.1-3.8-1.4-5.3-1.2-1.5-3-2.3-4.9-2.3H14.5C6.5 0 0 6.5 0 14.5v130.9c0 2.6 1.6 5 4.1 6 .8.3 1.5.4 2.3.4 1.8 0 3.5-.7 4.7-2.1L55 101.9h29.7c3.1 0 5.7-2.2 6.3-5.2l8.4-44.5 8.5-44.6zM79.4 89.1H52.2c-1.8 0-3.5.8-4.7 2.1L12.8 129V14.5c0-1 .8-1.8 1.8-1.8h79.3l-6 31.8H49.7c-3.5 0-6.4 2.9-6.4 6.4s2.9 6.4 6.4 6.4h35.7l-6 31.8z"/></svg>