<svg xmlns="http://www.w3.org/2000/svg" width="35.7" height="35.7" viewBox="0 0 35.7 35.7"><path d="M17.8 0C8 0 0 8 0 17.8s8 17.8 17.8 17.8 17.8-8 17.8-17.8C35.7 8 27.7 0 17.8 0zm13.6 11.4h-6c-.5-3-1.3-5.7-2.5-7.7 3.7 1.3 6.8 4.1 8.5 7.7zm1.5 6.4c0 1.3-.2 2.5-.5 3.6h-6.7c.1-1.2.2-2.4.2-3.6s-.1-2.4-.2-3.6h6.7c.3 1.2.5 2.4.5 3.6zM18 32.8h-.2c-1.6-.2-3.6-3.3-4.6-8.6h9.4c-1 5.4-3 8.5-4.6 8.6zm-5.2-11.3c-.1-1.1-.2-2.3-.2-3.6s.1-2.5.2-3.6h10.1c.1 1.1.2 2.3.2 3.6s-.1 2.5-.2 3.6H12.8zm-10-3.7c0-1.3.2-2.5.5-3.6H10c-.1 1.2-.2 2.4-.2 3.6s.1 2.4.2 3.6H3.3c-.3-1.1-.5-2.3-.5-3.6zm14.9-15h.2c1.6.2 3.6 3.3 4.6 8.6h-9.4c1-5.3 3-8.4 4.6-8.6zm-4.9.9c-1.2 2-2 4.7-2.5 7.7h-6C6 7.8 9 5 12.8 3.7zM4.3 24.3h6c.5 3 1.3 5.7 2.5 7.7C9 30.6 6 27.8 4.3 24.3zM22.9 32c1.2-2 2-4.7 2.5-7.7h6c-1.7 3.5-4.8 6.3-8.5 7.7z"/></svg>