<svg xmlns="http://www.w3.org/2000/svg" viewBox="0 0 35.9 35.9"><metadata><?xpacket begin="﻿" id="W5M0MpCehiHzreSzNTczkc9d"?>
<x:xmpmeta xmlns:x="adobe:ns:meta/" x:xmptk="Adobe XMP Core 5.6-c137 79.159768, 2016/08/11-13:24:42        ">
   <rdf:RDF xmlns:rdf="http://www.w3.org/1999/02/22-rdf-syntax-ns#">
      <rdf:Description rdf:about=""/>
   </rdf:RDF>
</x:xmpmeta>
                                                                                                    
                                                                                                    
                                                                                                    
                                                                                                    
                                                                                                    
                                                                                                    
                                                                                                    
                                                                                                    
                                                                                                    
                                                                                                    
                                                                                                    
                                                                                                    
                                                                                                    
                                                                                                    
                                                                                                    
                                                                                                    
                                                                                                    
                                                                                                    
                                                                                                    
                                                                                                    
                           
<?xpacket end="w"?></metadata>
<path d="M18 0C8.1 0 0 8.1 0 18s8.1 18 18 18 18-8.1 18-18c-.2-9.9-8.3-18-18-18zm11.6 8.7l.2.2c1.7 2.3 2.7 4.7 3 7.3v.3h-6.9v-.4c-.1-1.5-.2-3-.5-4.5v-.2l.2-.1c1.5-.8 2.8-1.6 3.9-2.5l.1-.1zm-6-4.6c1.6.7 2.8 1.5 3.8 2.3l.2.2-.2.2c-.7.6-1.5 1.1-2.4 1.6l-.3.1-.1-.3c-.3-1.3-.8-2.6-1.4-3.7l-.4-.7.8.3zm-9.8 5.2c1-3.9 2.6-6.4 4.2-6.4 1.5 0 3.1 2.6 4.1 6.4l.1.2-.2.1c-1.1.4-2.3.5-3.9.5-1.2 0-2.5-.2-4-.5l-.3-.1v-.2zm-.7 3.2l.3.1c3 .8 6 .8 9 0l.3-.1v.3c0 .4.1.7.1 1.1.1.8.2 1.6.2 2.4v.3H12.7v-.3c.1-1.2.2-2.3.3-3.4l.1-.4zM8.4 6.4c1.2-1 2.5-1.8 3.8-2.3l.7-.3-.4.6c-.6 1-1.1 2.3-1.4 3.7l-.1.4-.3-.1C10 8 9.3 7.5 8.7 7l-.6-.4.3-.2zM3 16.2c.3-2.7 1.3-5.2 2.9-7.3l.2-.2.2.2c1.1.9 2.4 1.7 3.9 2.5l.2.1v.2c-.2 1.5-.4 3-.5 4.6v.2H3v-.3zm3.2 11L6 27c-1.7-2.2-2.7-4.7-3-7.3v-.3h6.9v.4c.1 1.5.2 3 .5 4.5v.2l-.2.1c-1.5.8-2.8 1.6-3.9 2.5l-.1.1zm6 4.5c-1.6-.7-2.8-1.5-3.8-2.3l-.2-.2.2-.2c.7-.6 1.5-1.1 2.4-1.6l.3-.2.1.3c.4 1.3.8 2.6 1.4 3.8l.3.6-.7-.2zm9.9-5.2c-1 3.9-2.6 6.4-4.2 6.4s-3.2-2.5-4.2-6.4l-.1-.2.2-.1c1.4-.3 2.7-.5 4-.5 1.2 0 2.5.2 4 .5l.3.1v.2zm.6-3.1l-.3-.1c-3-.8-6-.8-9 0l-.3.1v-.3c0-.4-.1-.7-.1-1.1-.1-.8-.2-1.6-.2-2.4v-.3H23v.3c-.1 1.1-.2 2.1-.3 3.1v.7zm4.7 6.1c-1.3 1.1-2.6 1.8-3.8 2.3l-.6.2.3-.6c.6-1.2 1.1-2.5 1.4-3.8l.1-.3.3.1c.7.4 1.5.9 2.4 1.7l.2.2-.3.2zm2.5-2.6l-.2.2-.2-.2c-1.1-.9-2.4-1.7-3.9-2.5l-.2-.1v-.2c.2-1.5.4-3 .5-4.6v-.2h6.9v.3c-.3 2.8-1.3 5.2-2.9 7.3z"/></svg>