<svg xmlns="http://www.w3.org/2000/svg" viewBox="0 0 35.8 35.8"><path d="M17.9 0C8 0 0 8 0 17.9s8 17.9 17.9 17.9c9.9 0 17.9-8 17.9-17.9S27.7 0 17.9 0zM18 32.9c-1.1 0-2.6-1.9-3.6-5.1h7.2C20.6 31 19.2 32.9 18 32.9zM13.7 24.9c-0.3-1.7-0.6-3.6-0.6-5.7H23c-0.1 2.1-0.3 4-0.6 5.7H13.7zM2.9 19.3h7.4c0.1 1.9 0.3 3.8 0.6 5.7H4.6C3.7 23.2 3.1 21.3 2.9 19.3zM18 2.8c0.1 0 0.1 0 0.2 0 1.1 0.1 2.5 2 3.5 5.2h-7.3C15.4 4.7 16.8 2.9 18 2.8zM22.3 10.8c0.3 1.7 0.5 3.6 0.6 5.7h-9.9c0.1-2.1 0.3-4 0.6-5.7H22.3zM10.3 16.5H2.9c0.2-2 0.8-3.9 1.7-5.7h6.3C10.5 12.6 10.3 14.6 10.3 16.5zM25.8 19.3h7.1c-0.2 2-0.8 3.9-1.7 5.7h-6C25.5 23.1 25.7 21.2 25.8 19.3zM25.8 16.5c-0.1-1.9-0.3-3.8-0.6-5.7h6c0.9 1.7 1.5 3.6 1.7 5.7H25.8zM29.2 8h-4.7c-0.5-1.6-1-3.1-1.7-4.4C25.3 4.5 27.5 6 29.2 8zM13.3 3.5C12.6 4.8 12 6.3 11.5 8h-5C8.3 6 10.6 4.4 13.3 3.5zM6.5 27.7h5c0.5 1.7 1.1 3.2 1.8 4.5C10.7 31.4 8.3 29.8 6.5 27.7zM22.8 32.1c0.7-1.2 1.3-2.7 1.7-4.4h4.7C27.5 29.7 25.3 31.2 22.8 32.1z"/></svg>