<svg xmlns="http://www.w3.org/2000/svg" viewBox="0 0 35.9 35.9"><style type="text/css">
	.st0{fill:#231F20;}
</style><path class="st0" d="M18 0C8 0 0 8 0 18c0 9.9 8.1 18 18 18s18-8.1 18-18C35.9 8 27.9 0 18 0zM29.6 26.7c-1.2-1-2.5-1.8-3.9-2.5 0.2-1.5 0.4-3 0.5-4.6h6.3C32.1 22.3 31.1 24.7 29.6 26.7zM3.5 19.7h6.3c0.1 1.5 0.2 3.1 0.5 4.6 -1.4 0.7-2.7 1.5-3.9 2.5C4.8 24.7 3.8 22.3 3.5 19.7zM6.3 9.2c1.2 1 2.5 1.8 3.9 2.5 -0.2 1.5-0.4 3-0.5 4.6H3.5C3.8 13.6 4.8 11.2 6.3 9.2zM21.8 9.5C20.6 9.9 19.3 10 18 10c-1.3 0-2.6-0.2-3.9-0.5 1-3.9 2.6-6.1 3.9-6.1C19.2 3.4 20.8 5.6 21.8 9.5zM23.5 4.5c1.3 0.6 2.6 1.3 3.7 2.2 -0.7 0.6-1.5 1.1-2.3 1.5C24.6 6.9 24.1 5.6 23.5 4.5zM13.1 16.3c0.1-1.2 0.2-2.3 0.3-3.4 1.5 0.4 3 0.6 4.5 0.6 1.5 0 3-0.2 4.5-0.6 0.1 1.1 0.3 2.2 0.3 3.4H13.1zM22.8 19.7c-0.1 1.2-0.2 2.3-0.3 3.4 -1.5-0.4-3-0.6-4.5-0.6 -1.5 0-3 0.2-4.5 0.6 -0.1-1.1-0.3-2.2-0.3-3.4H22.8zM11 8.3c-0.8-0.4-1.6-1-2.3-1.5 1.1-0.9 2.4-1.7 3.7-2.2C11.8 5.6 11.3 6.9 11 8.3zM11 27.6c0.4 1.4 0.9 2.7 1.4 3.8 -1.3-0.6-2.6-1.3-3.7-2.2C9.4 28.6 10.2 28.1 11 27.6zM14.1 26.4c1.2-0.3 2.5-0.5 3.9-0.5 1.3 0 2.6 0.2 3.9 0.5 -1 3.9-2.6 6.1-3.9 6.1C16.7 32.5 15.1 30.3 14.1 26.4zM24.9 27.6c0.8 0.4 1.6 1 2.3 1.6 -1.1 0.9-2.3 1.7-3.7 2.2C24.1 30.3 24.6 29 24.9 27.6zM26.1 16.3c-0.1-1.5-0.2-3.1-0.5-4.6 1.4-0.7 2.7-1.5 3.9-2.5 1.5 2 2.6 4.4 2.9 7.1H26.1z"/></svg>
