<svg xmlns="http://www.w3.org/2000/svg" viewBox="0 0 35.7 35.7"><path d="M17.8 0C8 0 0 8 0 17.8c0 9.8 8 17.8 17.8 17.8s17.8-8 17.8-17.8C35.7 8 27.7 0 17.8 0zM31.4 11.4h-6c-0.5-3-1.3-5.7-2.5-7.7C26.6 5 29.7 7.8 31.4 11.4zM32.9 17.8c0 1.3-0.2 2.5-0.5 3.6h-6.7c0.1-1.2 0.2-2.4 0.2-3.6s-0.1-2.4-0.2-3.6h6.7C32.7 15.4 32.9 16.6 32.9 17.8zM18 32.8c0 0-0.1 0-0.1 0s-0.1 0-0.1 0c-1.6-0.2-3.6-3.3-4.6-8.6h9.4C21.6 29.6 19.6 32.7 18 32.8zM12.8 21.5c-0.1-1.1-0.2-2.3-0.2-3.6s0.1-2.5 0.2-3.6h10.1c0.1 1.1 0.2 2.3 0.2 3.6s-0.1 2.5-0.2 3.6H12.8zM2.8 17.8c0-1.3 0.2-2.5 0.5-3.6H10c-0.1 1.2-0.2 2.4-0.2 3.6s0.1 2.4 0.2 3.6H3.3C3 20.3 2.8 19.1 2.8 17.8zM17.7 2.8c0 0 0.1 0 0.1 0s0.1 0 0.1 0c1.6 0.2 3.6 3.3 4.6 8.6h-9.4C14.1 6.1 16.1 3 17.7 2.8zM12.8 3.7c-1.2 2-2 4.7-2.5 7.7h-6C6 7.8 9 5 12.8 3.7zM4.3 24.3h6c0.5 3 1.3 5.7 2.5 7.7C9 30.6 6 27.8 4.3 24.3zM22.9 32c1.2-2 2-4.7 2.5-7.7h6C29.7 27.8 26.6 30.6 22.9 32z"/></svg>