<svg xmlns="http://www.w3.org/2000/svg" viewBox="0 0 35.9 39.6" width="35.9" height="39.6"><path d="M31.4 3.9h-4.6V1.6c0-.9-.7-1.6-1.6-1.6-.9 0-1.6.7-1.6 1.6v2.3H12.2V1.6c0-.9-.7-1.6-1.6-1.6-.8 0-1.5.7-1.5 1.6v2.3H4.5C2 3.9 0 5.9 0 8.4v26.7c0 2.5 2 4.5 4.5 4.5h26.9c2.5 0 4.5-2 4.5-4.5V8.4c0-2.5-2-4.5-4.5-4.5zM4.5 7h4.6v2.3c0 .9.7 1.6 1.6 1.6.9 0 1.6-.7 1.6-1.6V7h11.4v2.3c0 .9.7 1.6 1.6 1.6.9 0 1.6-.7 1.6-1.6V7h4.6c.7 0 1.4.6 1.4 1.4v5.9H3.1V8.4c0-.8.6-1.4 1.4-1.4zm26.9 29.5H4.5c-.7 0-1.4-.6-1.4-1.4V17.4h29.6v17.7c.1.7-.5 1.4-1.3 1.4z"/></svg>