<svg xmlns="http://www.w3.org/2000/svg" viewBox="0 0 35.9 39.6"><metadata><?xpacket begin="﻿" id="W5M0MpCehiHzreSzNTczkc9d"?>
<x:xmpmeta xmlns:x="adobe:ns:meta/" x:xmptk="Adobe XMP Core 5.6-c137 79.159768, 2016/08/11-13:24:42        ">
   <rdf:RDF xmlns:rdf="http://www.w3.org/1999/02/22-rdf-syntax-ns#">
      <rdf:Description rdf:about=""/>
   </rdf:RDF>
</x:xmpmeta>
                                                                                                    
                                                                                                    
                                                                                                    
                                                                                                    
                                                                                                    
                                                                                                    
                                                                                                    
                                                                                                    
                                                                                                    
                                                                                                    
                                                                                                    
                                                                                                    
                                                                                                    
                                                                                                    
                                                                                                    
                                                                                                    
                                                                                                    
                                                                                                    
                                                                                                    
                                                                                                    
                           
<?xpacket end="w"?></metadata>
<path d="M31.4 3.9h-4.6V1.6c0-0.9-0.7-1.6-1.6-1.6 -0.9 0-1.6 0.7-1.6 1.6v2.3H12.2V1.6c0-0.9-0.7-1.6-1.6-1.6C9.8 0 9.1 0.7 9.1 1.6v2.3H4.5C2 3.9 0 5.9 0 8.4v26.7c0 2.5 2 4.5 4.5 4.5h26.9c2.5 0 4.5-2 4.5-4.5V8.4C35.9 5.9 33.9 3.9 31.4 3.9zM4.5 7h4.6v2.3c0 0.9 0.7 1.6 1.6 1.6 0.9 0 1.6-0.7 1.6-1.6V7h11.4v0.6 1.7c0 0.9 0.7 1.6 1.6 1.6 0.9 0 1.6-0.7 1.6-1.6V7.6 7h4.6c0.7 0 1.4 0.6 1.4 1.4v5.9H3.1V8.4C3.1 7.6 3.7 7 4.5 7zM31.4 36.5H4.5c-0.7 0-1.4-0.6-1.4-1.4V17.4h29.6v17.7C32.8 35.8 32.2 36.5 31.4 36.5z"/></svg>