<svg xmlns="http://www.w3.org/2000/svg">
  <symbol id="link" viewBox="0 0 40 39.6"><path d="M34.6 20.8v17.1c0 .9-.7 1.6-1.6 1.6H1.6c-.9 0-1.6-.7-1.6-1.6V6.3c0-.9.7-1.6 1.6-1.6h17c.9 0 1.6.7 1.6 1.6S19.5 8 18.6 8H3.2v28.3h28.1V20.8c0-.9.7-1.6 1.6-1.6 1 0 1.7.7 1.7 1.6zM38.4 0H26.1c-.9 0-1.6.7-1.6 1.6s.7 1.6 1.6 1.6h8L16.6 20.6c-.3.3-.5.7-.5 1.2 0 .4.2.8.5 1.2.3.3.7.5 1.2.5.4 0 .8-.2 1.2-.5L36.7 5.3v8.4c0 .9.7 1.6 1.6 1.6s1.6-.7 1.6-1.6V1.6C40 .7 39.3 0 38.4 0z"/></symbol>
  <symbol id="hours" viewBox="0 0 35.9 39.6"><path d="M31.4 3.9h-4.6V1.6c0-.9-.7-1.6-1.6-1.6-.9 0-1.6.7-1.6 1.6v2.3H12.2V1.6c0-.9-.7-1.6-1.6-1.6-.8 0-1.5.7-1.5 1.6v2.3H4.5C2 3.9 0 5.9 0 8.4v26.7c0 2.5 2 4.5 4.5 4.5h26.9c2.5 0 4.5-2 4.5-4.5V8.4c0-2.5-2-4.5-4.5-4.5zM4.5 7h4.6v2.3c0 .9.7 1.6 1.6 1.6.9 0 1.6-.7 1.6-1.6V7h11.4v2.3c0 .9.7 1.6 1.6 1.6.9 0 1.6-.7 1.6-1.6V7h4.6c.7 0 1.4.6 1.4 1.4v5.9H3.1V8.4c0-.8.6-1.4 1.4-1.4zm26.9 29.5H4.5c-.7 0-1.4-.6-1.4-1.4V17.4h29.6v17.7c.1.7-.5 1.4-1.3 1.4z"/></symbol>
  <symbol id="clock" viewBox="0 0 35.9 35.9"><path d="M17.9 0C8 0 0 8 0 17.9s8 17.9 17.9 17.9 17.9-8 17.9-17.9C35.9 8 27.8 0 17.9 0zm0 32.4c-8 0-14.5-6.5-14.5-14.5S9.9 3.4 17.9 3.4s14.5 6.5 14.5 14.5S26 32.4 17.9 32.4zm6.9-9.3l-5.2-5.2v-7.5c0-.9-.7-1.7-1.7-1.7s-1.7.7-1.7 1.7v8.1c0 .5.2.9.5 1.3l5.7 5.7c.3.3.7.5 1.2.5.4 0 .9-.2 1.2-.5.3-.3.5-.7.5-1.2s-.2-.9-.5-1.2z"/></symbol>
  <symbol id="globe" viewBox="0 0 35.7 35.7"><path d="M17.8 0C8 0 0 8 0 17.8c0 9.8 8 17.8 17.8 17.8s17.8-8 17.8-17.8C35.7 8 27.7 0 17.8 0zM31.4 11.4h-6c-0.5-3-1.3-5.7-2.5-7.7C26.6 5 29.7 7.8 31.4 11.4zM32.9 17.8c0 1.3-0.2 2.5-0.5 3.6h-6.7c0.1-1.2 0.2-2.4 0.2-3.6s-0.1-2.4-0.2-3.6h6.7C32.7 15.4 32.9 16.6 32.9 17.8zM18 32.8c0 0-0.1 0-0.1 0s-0.1 0-0.1 0c-1.6-0.2-3.6-3.3-4.6-8.6h9.4C21.6 29.6 19.6 32.7 18 32.8zM12.8 21.5c-0.1-1.1-0.2-2.3-0.2-3.6s0.1-2.5 0.2-3.6h10.1c0.1 1.1 0.2 2.3 0.2 3.6s-0.1 2.5-0.2 3.6H12.8zM2.8 17.8c0-1.3 0.2-2.5 0.5-3.6H10c-0.1 1.2-0.2 2.4-0.2 3.6s0.1 2.4 0.2 3.6H3.3C3 20.3 2.8 19.1 2.8 17.8zM17.7 2.8c0 0 0.1 0 0.1 0s0.1 0 0.1 0c1.6 0.2 3.6 3.3 4.6 8.6h-9.4C14.1 6.1 16.1 3 17.7 2.8zM12.8 3.7c-1.2 2-2 4.7-2.5 7.7h-6C6 7.8 9 5 12.8 3.7zM4.3 24.3h6c0.5 3 1.3 5.7 2.5 7.7C9 30.6 6 27.8 4.3 24.3zM22.9 32c1.2-2 2-4.7 2.5-7.7h6C29.7 27.8 26.6 30.6 22.9 32z"/></symbol>
  <symbol id="marker" viewBox="0 0 40 54.2"><path d="M20 30c5.3 0 9.5-4.3 9.5-9.5s-4.3-9.5-9.5-9.5 -9.5 4.3-9.5 9.5S14.8 30 20 30zM20 14.7c3.1 0 5.7 2.5 5.7 5.7s-2.6 5.7-5.7 5.7c-3.1 0-5.7-2.5-5.7-5.7S16.9 14.7 20 14.7zM20 0C9 0 0 9 0 20c0 4.5 1.5 8.9 4.2 12.3L20 54.2l15.7-21.8C38.5 29 40 24.6 40 20 40 9 31.1 0 20 0zM20 4c8.9 0 16.1 7.2 16.1 16.1 0 3.7-1.1 7.1-3.4 10L20 47.6 7.4 30.1C5.1 27.1 4 23.7 4 20 4 11.2 11.2 4 20 4z"/></symbol>
  <symbol id="phone" viewBox="0 0 35.9 35.9"><path d="M24.4 35.9c-5.6 0-11.8-2.6-16.8-7.6C-.7 19.9-2.5 8 3.7 1.7l.1-.1C5.8-.4 7.7-.1 9 .4c1.3.6 2.5 1.7 3.9 3.1 1.4 1.4 2.5 2.5 3 3.9.5 1.3.8 3.2-1.2 5.2-.8.8-1.7 1.4-2.8 1.8.8 1.9 2.2 3.9 3.9 5.7 1.8 1.8 3.8 3.1 5.7 3.9.4-1 1-2 1.8-2.8 3.6-3.6 6.9-.3 9.1 1.8s5.5 5.5 1.8 9.1l-.1.1c-2.5 2.5-5.9 3.7-9.7 3.7zM6.1 4.2c-4.8 5-3 14.7 3.9 21.7 7 7 16.7 8.8 21.7 3.9l.1-.1.1-.1c.9-.9 1-1.4-1.9-4.3-.9-.9-2-2-2.8-2.3-.3-.1-.7-.3-1.5.5-.7.7-1.2 1.7-1.3 2.7 0 .5-.3.9-.7 1.2-.4.3-.9.4-1.4.3-2.9-.6-6.2-2.6-8.9-5.3-2.8-2.8-4.7-6-5.3-9-.1-.5 0-1 .3-1.4.3-.4.7-.6 1.2-.7 1-.1 2-.5 2.7-1.3.8-.7.7-1 .5-1.4-.4-.8-1.4-1.9-2.3-2.8-.9-.9-2-2-2.8-2.3-.3-.1-.7-.3-1.5.5l-.1.2c0-.1 0-.1 0 0z"/></symbol>
  <symbol id="info" viewBox="0 0 35.8 35.9"><path d="M17.9 12.7c1.2 0 2.1-.9 2.1-2.1 0-1.2-1-2.1-2.1-2.1s-2.1.9-2.1 2.1.9 2.1 2.1 2.1zm-1.8 2.7h3.5v12h-3.5v-12zM17.9 0C8 0 0 8.1 0 17.9c0 9.9 8 17.9 17.9 17.9 9.9 0 17.9-8 17.9-17.9 0-9.8-8-17.9-17.9-17.9zm0 32.5C9.9 32.5 3.4 26 3.4 18S9.9 3.5 17.9 3.5 32.4 10 32.4 18s-6.5 14.5-14.5 14.5z"/></symbol>
  <symbol id="search" viewBox="0 0 35.5 35.7"><path d="M25.5 22.2c1.6-2.3 2.6-5.1 2.6-8.2 0-7.7-6.3-14-14-14C6.3 0 0 6.3 0 14.1s6.3 14.1 14.1 14.1c2.9 0 5.6-.9 7.8-2.4l9.7 9.6c.6.6 1.9.3 2.9-.7s1.3-2.3.7-2.9l-9.7-9.6zm-11.3 1.7c-5.5 0-9.9-4.4-9.9-9.9s4.4-9.9 9.9-9.9 9.9 4.4 9.9 9.9-4.4 9.9-9.9 9.9z"/></symbol>
  <symbol id="star" viewBox="0 0 36.3 34.4"><path d="M34.7 12.4l-11.5-.6-4-10.6c-.6-1.6-1.6-1.6-2.2 0l-4 10.7-11.5.5c-1.7.1-2 1-.7 2.1l8.9 7.2s-1.9 6.9-3 11c-.4 1.6.3 2.2 1.8 1.3 3.6-2.3 9.6-6.3 9.6-6.3l9.6 6.3c1.4.9 2.2.4 1.8-1.3l-3-11 8.9-7.2c1.4-1 1.1-2-.7-2.1z"/></symbol>
  <symbol id="tips" viewBox="0 0 35.9 35.9"><path d="M26.2 15.9H9.7c-.9 0-1.5.7-1.5 1.5.1.8.8 1.5 1.5 1.5h16.5c.8 0 1.5-.7 1.5-1.5 0-.9-.6-1.5-1.5-1.5zm0-7.3H9.7c-.9 0-1.5.7-1.5 1.5.1.8.8 1.5 1.5 1.5h16.5c.8 0 1.5-.7 1.5-1.5s-.6-1.5-1.5-1.5zM32.8 0H3.2C1.4 0 0 1.4 0 3.2v21.3c0 1.8 1.4 3.2 3.2 3.2h14.3l.1.1 9.4 7.8c.2.2.5.3.9.3.2 0 .4-.1.6-.2.5-.3.9-.8.9-1.4v-6.7h3.5c1.8 0 3.2-1.4 3.2-3.2V3.2C35.9 1.4 34.5 0 32.8 0zm.1 24.6h-5.1c-.9 0-1.5.7-1.5 1.5v5L19 24.9c-.2-.2-.5-.3-.9-.3H3V3h29.9v21.6z"/></symbol>
</svg>