<svg xmlns="http://www.w3.org/2000/svg">
<symbol id="hours" viewBox="0 0 35.9 39.6"><path d="M31.4 3.9h-4.6V1.6c0-.9-.7-1.6-1.6-1.6-.9 0-1.6.7-1.6 1.6v2.3H12.2V1.6c0-.9-.7-1.6-1.6-1.6-.8 0-1.5.7-1.5 1.6v2.3H4.5C2 3.9 0 5.9 0 8.4v26.7c0 2.5 2 4.5 4.5 4.5h26.9c2.5 0 4.5-2 4.5-4.5V8.4c0-2.5-2-4.5-4.5-4.5zM4.5 7h4.6v2.3c0 .9.7 1.6 1.6 1.6.9 0 1.6-.7 1.6-1.6V7h11.4v2.3c0 .9.7 1.6 1.6 1.6.9 0 1.6-.7 1.6-1.6V7h4.6c.7 0 1.4.6 1.4 1.4v5.9H3.1V8.4c0-.8.6-1.4 1.4-1.4zm26.9 29.5H4.5c-.7 0-1.4-.6-1.4-1.4V17.4h29.6v17.7c.1.7-.5 1.4-1.3 1.4z"/></symbol>
<symbol id="clock" viewBox="0 0 35.9 35.9"><path d="M17.9 0C8 0 0 8 0 17.9s8 17.9 17.9 17.9 17.9-8 17.9-17.9C35.9 8 27.8 0 17.9 0zm0 32.4c-8 0-14.5-6.5-14.5-14.5S9.9 3.4 17.9 3.4s14.5 6.5 14.5 14.5S26 32.4 17.9 32.4zm6.9-9.3l-5.2-5.2v-7.5c0-.9-.7-1.7-1.7-1.7s-1.7.7-1.7 1.7v8.1c0 .5.2.9.5 1.3l5.7 5.7c.3.3.7.5 1.2.5.4 0 .9-.2 1.2-.5.3-.3.5-.7.5-1.2s-.2-.9-.5-1.2z"/></symbol>
<symbol id="info" viewBox="0 0 35.8 35.9"><path d="M17.9 12.7c1.2 0 2.1-.9 2.1-2.1 0-1.2-1-2.1-2.1-2.1s-2.1.9-2.1 2.1.9 2.1 2.1 2.1zm-1.8 2.7h3.5v12h-3.5v-12zM17.9 0C8 0 0 8.1 0 17.9c0 9.9 8 17.9 17.9 17.9 9.9 0 17.9-8 17.9-17.9 0-9.8-8-17.9-17.9-17.9zm0 32.5C9.9 32.5 3.4 26 3.4 18S9.9 3.5 17.9 3.5 32.4 10 32.4 18s-6.5 14.5-14.5 14.5z"/></symbol>
<symbol id="globe" viewBox="0 0 35.9 35.9"><path d="M18 0C8.1 0 0 8.1 0 18s8.1 18 18 18 18-8.1 18-18c-.2-9.9-8.3-18-18-18zm11.6 8.7l.2.2c1.7 2.3 2.7 4.7 3 7.3v.3h-6.9v-.4c-.1-1.5-.2-3-.5-4.5v-.2l.2-.1c1.5-.8 2.8-1.6 3.9-2.5l.1-.1zm-6-4.6c1.6.7 2.8 1.5 3.8 2.3l.2.2-.2.2c-.7.6-1.5 1.1-2.4 1.6l-.3.1-.1-.3c-.3-1.3-.8-2.6-1.4-3.7l-.4-.7.8.3zm-9.8 5.2c1-3.9 2.6-6.4 4.2-6.4 1.5 0 3.1 2.6 4.1 6.4l.1.2-.2.1c-1.1.4-2.3.5-3.9.5-1.2 0-2.5-.2-4-.5l-.3-.1v-.2zm-.7 3.2l.3.1c3 .8 6 .8 9 0l.3-.1v.3c0 .4.1.7.1 1.1.1.8.2 1.6.2 2.4v.3H12.7v-.3c.1-1.2.2-2.3.3-3.4l.1-.4zM8.4 6.4c1.2-1 2.5-1.8 3.8-2.3l.7-.3-.4.6c-.6 1-1.1 2.3-1.4 3.7l-.1.4-.3-.1C10 8 9.3 7.5 8.7 7l-.6-.4.3-.2zM3 16.2c.3-2.7 1.3-5.2 2.9-7.3l.2-.2.2.2c1.1.9 2.4 1.7 3.9 2.5l.2.1v.2c-.2 1.5-.4 3-.5 4.6v.2H3v-.3zm3.2 11L6 27c-1.7-2.2-2.7-4.7-3-7.3v-.3h6.9v.4c.1 1.5.2 3 .5 4.5v.2l-.2.1c-1.5.8-2.8 1.6-3.9 2.5l-.1.1zm6 4.5c-1.6-.7-2.8-1.5-3.8-2.3l-.2-.2.2-.2c.7-.6 1.5-1.1 2.4-1.6l.3-.2.1.3c.4 1.3.8 2.6 1.4 3.8l.3.6-.7-.2zm9.9-5.2c-1 3.9-2.6 6.4-4.2 6.4s-3.2-2.5-4.2-6.4l-.1-.2.2-.1c1.4-.3 2.7-.5 4-.5 1.2 0 2.5.2 4 .5l.3.1v.2zm.6-3.1l-.3-.1c-3-.8-6-.8-9 0l-.3.1v-.3c0-.4-.1-.7-.1-1.1-.1-.8-.2-1.6-.2-2.4v-.3H23v.3c-.1 1.1-.2 2.1-.3 3.1v.7zm4.7 6.1c-1.3 1.1-2.6 1.8-3.8 2.3l-.6.2.3-.6c.6-1.2 1.1-2.5 1.4-3.8l.1-.3.3.1c.7.4 1.5.9 2.4 1.7l.2.2-.3.2zm2.5-2.6l-.2.2-.2-.2c-1.1-.9-2.4-1.7-3.9-2.5l-.2-.1v-.2c.2-1.5.4-3 .5-4.6v-.2h6.9v.3c-.3 2.8-1.3 5.2-2.9 7.3z"/></symbol>
<symbol id="tips" viewBox="0 0 35.9 35.9"><path d="M26.2 15.9H9.7c-.9 0-1.5.7-1.5 1.5.1.8.8 1.5 1.5 1.5h16.5c.8 0 1.5-.7 1.5-1.5 0-.9-.6-1.5-1.5-1.5zm0-7.3H9.7c-.9 0-1.5.7-1.5 1.5.1.8.8 1.5 1.5 1.5h16.5c.8 0 1.5-.7 1.5-1.5s-.6-1.5-1.5-1.5zM32.8 0H3.2C1.4 0 0 1.4 0 3.2v21.3c0 1.8 1.4 3.2 3.2 3.2h14.3l.1.1 9.4 7.8c.2.2.5.3.9.3.2 0 .4-.1.6-.2.5-.3.9-.8.9-1.4v-6.7h3.5c1.8 0 3.2-1.4 3.2-3.2V3.2C35.9 1.4 34.5 0 32.8 0zm.1 24.6h-5.1c-.9 0-1.5.7-1.5 1.5v5L19 24.9c-.2-.2-.5-.3-.9-.3H3V3h29.9v21.6z"/></symbol>
<symbol id="marker" viewBox="0 0 40 54.1"><path d="M20 0C9 0 0 9 0 20c0 4.5 1.5 8.9 4.2 12.3L20 54.1l15.7-21.8C38.5 28.9 40 24.5 40 20 40 9 31 0 20 0zm13 30.3l-13 18-13-18c-2.3-3-3.5-6.5-3.5-10.3 0-9.1 7.4-16.5 16.5-16.5S36.5 10.9 36.5 20c0 3.8-1.2 7.3-3.5 10.3zM20 11c-5.2 0-9.4 4.2-9.4 9.4s4.2 9.4 9.4 9.4 9.4-4.2 9.4-9.4S25.2 11 20 11zm0 15.4c-3.3 0-6-2.7-6-6s2.7-6 6-6 6 2.7 6 6-2.7 6-6 6z"/></symbol>
<symbol id="phone" viewBox="0 0 35.9 35.9"><path d="M24.4 35.9c-5.6 0-11.8-2.6-16.8-7.6C-.7 19.9-2.5 8 3.7 1.7l.1-.1C5.8-.4 7.7-.1 9 .4c1.3.6 2.5 1.7 3.9 3.1 1.4 1.4 2.5 2.5 3 3.9.5 1.3.8 3.2-1.2 5.2-.8.8-1.7 1.4-2.8 1.8.8 1.9 2.2 3.9 3.9 5.7 1.8 1.8 3.8 3.1 5.7 3.9.4-1 1-2 1.8-2.8 3.6-3.6 6.9-.3 9.1 1.8s5.5 5.5 1.8 9.1l-.1.1c-2.5 2.5-5.9 3.7-9.7 3.7zM6.1 4.2c-4.8 5-3 14.7 3.9 21.7 7 7 16.7 8.8 21.7 3.9l.1-.1.1-.1c.9-.9 1-1.4-1.9-4.3-.9-.9-2-2-2.8-2.3-.3-.1-.7-.3-1.5.5-.7.7-1.2 1.7-1.3 2.7 0 .5-.3.9-.7 1.2-.4.3-.9.4-1.4.3-2.9-.6-6.2-2.6-8.9-5.3-2.8-2.8-4.7-6-5.3-9-.1-.5 0-1 .3-1.4.3-.4.7-.6 1.2-.7 1-.1 2-.5 2.7-1.3.8-.7.7-1 .5-1.4-.4-.8-1.4-1.9-2.3-2.8-.9-.9-2-2-2.8-2.3-.3-.1-.7-.3-1.5.5l-.1.2c0-.1 0-.1 0 0z"/></symbol>
<symbol id="link" viewBox="0 0 40 39.6"><path d="M34.6 20.8v17.1c0 0.9-0.7 1.6-1.6 1.6H1.6c-0.9 0-1.6-0.7-1.6-1.6V6.3c0-0.9 0.7-1.6 1.6-1.6h17c0.9 0 1.6 0.7 1.6 1.6S19.5 8 18.6 8H3.2v28.3h28.1V20.8c0-0.9 0.7-1.6 1.6-1.6C33.9 19.2 34.6 19.9 34.6 20.8zM38.4 0H26.1c-0.9 0-1.6 0.7-1.6 1.6s0.7 1.6 1.6 1.6h8L16.6 20.6c-0.3 0.3-0.5 0.7-0.5 1.2 0 0.4 0.2 0.8 0.5 1.2 0.3 0.3 0.7 0.5 1.2 0.5 0.4 0 0.8-0.2 1.2-0.5L36.7 5.3v8.4c0 0.9 0.7 1.6 1.6 1.6s1.6-0.7 1.6-1.6V1.6C40 0.7 39.3 0 38.4 0z"/></svg></symbol>
<symbol id="star" viewBox="0 0 36.3 34.4"><path d="M34.7 12.4l-11.5-.6-4-10.6c-.6-1.6-1.6-1.6-2.2 0l-4 10.7-11.5.5c-1.7.1-2 1-.7 2.1l8.9 7.2s-1.9 6.9-3 11c-.4 1.6.3 2.2 1.8 1.3 3.6-2.3 9.6-6.3 9.6-6.3l9.6 6.3c1.4.9 2.2.4 1.8-1.3l-3-11 8.9-7.2c1.4-1 1.1-2-.7-2.1z"/></symbol>
</svg>