<svg xmlns="http://www.w3.org/2000/svg"><symbol id="clock" viewBox="0 0 35.9 35.9"><path d="M17.9 0C8 0 0 8 0 17.9s8 17.9 17.9 17.9 17.9-8 17.9-17.9C35.9 8 27.8 0 17.9 0zm0 32.4c-8 0-14.5-6.5-14.5-14.5S9.9 3.4 17.9 3.4s14.5 6.5 14.5 14.5S26 32.4 17.9 32.4zm6.9-9.3l-5.2-5.2v-7.5c0-.9-.7-1.7-1.7-1.7s-1.7.7-1.7 1.7v8.1c0 .5.2.9.5 1.3l5.7 5.7c.3.3.7.5 1.2.5.4 0 .9-.2 1.2-.5.3-.3.5-.7.5-1.2s-.2-.9-.5-1.2z"/></symbol><symbol id="food" viewBox="0 0 36.3 39.8"><path d="M31 5.9C29.1 1.7 26.3-.3 25 0c-.5.1-.9.5-.9 1.1V22c0 .1-.1 5.1 0 9.2.1 4.6.2 8.6 3.3 8.6.8 0 1.6-.3 2.1-1 2-2.4 1.2-8.6.4-14.3-.1-.5-.1-.9-.2-1.2v-.4c1.5 0 2.3-.5 2.6-1.5C33 18 33 10.5 31 5.9zm-.6 15c-.1 0-.4.1-1 0h-.3c-.4 0-.7.1-.9.4-.4.4-.5 1.1-.3 2.3.1.3.1.8.2 1.2.5 3.2 1.7 10.8.1 12.7-.2.2-.3.3-.6.3-1.1 0-1.2-3.5-1.3-6.6-.1-4.1 0-9.1 0-9.1V2.6c.8.6 2 1.9 3 4.2C31 11 30.9 18 30.4 20.9zm-14.2-19v8.8c0 3.5-2 5.6-3 6.8-.2.2-.5.6-.6.7-.1.3-.5 2.1-.1 4.6 1.3 8.6 1.1 13.9-.7 16-.6.7-1.3 1-2.2 1s-1.6-.4-2.2-1c-1.7-2-2-7.4-.7-16 .4-2.5 0-4.3-.1-4.6 0 0-.2-.3-.4-.4-1-1-2.8-2.9-2.8-7V1.9c0-.6.4-1 1-1s1 .4 1 1v8.8c0 3.3 1.3 4.7 2.2 5.6.4.4.8.8.9 1.4.1.6.6 2.6.1 5.4-1.5 11.1 0 13.8.4 14.4.4.4.9.4 1.3 0 .5-.6 1.9-3.2.2-14.4-.4-2.8 0-4.9.1-5.4s.5-.9 1-1.5c1-1.1 2.5-2.7 2.5-5.4V1.9c0-.6.4-1 1-1s1.1.5 1.1 1zm-9.1 8.8V1.9c0-.6.4-1 1-1s1 .4 1 1v8.8c0 .6-.4 1-1 1s-1-.4-1-1zm3.5 0V1.9c0-.6.4-1 1-1s1 .4 1 1v8.8c0 .6-.4 1-1 1s-1-.4-1-1z"/></symbol><symbol id="foursquare" viewBox="0 0 108 151.9"><path d="M107.9 7.6c.4-1.9-.1-3.8-1.4-5.3-1.2-1.5-3-2.3-4.9-2.3H14.5C6.5 0 0 6.5 0 14.5v130.9c0 2.6 1.6 5 4.1 6 .8.3 1.5.4 2.3.4 1.8 0 3.5-.7 4.7-2.1L55 101.9h29.7c3.1 0 5.7-2.2 6.3-5.2l8.4-44.5 8.5-44.6zM79.4 89.1H52.2c-1.8 0-3.5.8-4.7 2.1L12.8 129V14.5c0-1 .8-1.8 1.8-1.8h79.3l-6 31.8H49.7c-3.5 0-6.4 2.9-6.4 6.4s2.9 6.4 6.4 6.4h35.7l-6 31.8z"/></symbol><symbol id="coffee" viewBox="0 0 36.3 39.8"><path d="M33.5 16.5c-1.1-.3-2.2-.2-3.2.1v-1.9c0-.6-.4-1-1-1h-24c-.6 0-1 .4-1 1v1.7c0 7.7 6.8 16.6 7.1 16.9l.3.3c.1 0 2 1 5.6 1 3.6 0 5.5-.9 5.6-1 .1-.1.3-.2.3-.3.1-.2 1.7-2.2 3.3-5 5.1-.3 8.9-2.7 9.6-6.3.6-2.8-.4-4.9-2.6-5.5zM21.8 31.9c-.5.2-2 .7-4.5.7s-4-.5-4.5-.7c-1-1.4-6.5-9.1-6.5-15.5v-.7h22v.7c0 6.4-5.5 14.2-6.5 15.5zm12.3-10.2c-.5 2.4-3 4.1-6.5 4.6 1-2.1 2-4.5 2.4-7 .1-.2.3-.4.7-.7.7-.4 1.5-.4 2.3-.2 1.5.4 1.3 2.4 1.1 3.3zm.5 12.8c0 3.6-9 5.3-17.3 5.3S0 38.1 0 34.5c0-1.8 2-3.1 6-4.1.5-.1 1.1.2 1.2.7s-.2 1.1-.7 1.2c-3.4.8-4.5 1.8-4.5 2.2 0 1 5.2 3.3 15.3 3.3s15.3-2.3 15.3-3.3c0-.4-1.1-1.4-4.5-2.2-.5-.1-.9-.7-.7-1.2.1-.5.7-.9 1.2-.7 4 .9 6 2.3 6 4.1zM22.4 6.7c-1-1.3-2.4-3.2.8-6.4.4-.4 1-.4 1.4 0 .4.4.4 1 0 1.4-2 2-1.5 2.7-.6 3.9.9 1.2 2.3 3-.2 6-.2.2-.5.4-.8.4-.2 0-.4-.1-.6-.2-.4-.3-.5-1-.1-1.4 1.4-1.9 1-2.5.1-3.7zm-11.2 0c-1-1.3-2.4-3.2.8-6.4.4-.4 1-.4 1.4 0 .4.4.4 1 0 1.4-2 2-1.5 2.7-.6 3.9.9 1.2 2.3 3-.2 6-.2.2-.5.4-.8.4-.2 0-.4-.1-.6-.2-.4-.3-.5-1-.1-1.4 1.5-1.9 1-2.5.1-3.7zm5.6 0c-1-1.3-2.4-3.2.8-6.4.4-.4 1-.4 1.4 0 .4.4.4 1 0 1.4-2 2-1.5 2.7-.6 3.9.9 1.2 2.3 3-.2 6-.2.2-.5.4-.8.4-.2 0-.4-.1-.6-.2-.4-.3-.5-1-.1-1.4 1.5-1.9 1-2.5.1-3.7z"/></symbol><symbol id="drinks" viewBox="0 0 36.3 39.8"><path d="M29.1 0c-3.6 0-6.6 2.7-7.1 6.2H1c-.4 0-.7.2-.9.6-.2.3-.1.8.1 1.1l13.8 16v14H9.4c-.6 0-1 .4-1 1s.4 1 1 1h11.3c.6 0 1-.4 1-1s-.4-1-1-1H16v-14l9.1-10.6c1.1.7 2.5 1.2 3.9 1.2 4 0 7.2-3.2 7.2-7.2S33 0 29.1 0zm-2.2 8.2L24 11.6H6.1L3.2 8.2h23.7zM15 21.9l-7.2-8.3h14.4L15 21.9zm14.1-9.5c-.9 0-1.8-.3-2.6-.7l3.3-3.8c.3-.3.3-.7.2-1.1-.2-.4-.5-.6-.9-.6H24c.4-2.4 2.5-4.2 5.1-4.2 2.9 0 5.2 2.3 5.2 5.2 0 2.9-2.4 5.2-5.2 5.2z"/></symbol><symbol id="globe" viewBox="0 0 35.7 35.7"><path d="M17.8 0C8 0 0 8 0 17.8s8 17.8 17.8 17.8 17.8-8 17.8-17.8C35.7 8 27.7 0 17.8 0zm13.6 11.4h-6c-.5-3-1.3-5.7-2.5-7.7 3.7 1.3 6.8 4.1 8.5 7.7zm1.5 6.4c0 1.3-.2 2.5-.5 3.6h-6.7c.1-1.2.2-2.4.2-3.6s-.1-2.4-.2-3.6h6.7c.3 1.2.5 2.4.5 3.6zM18 32.8h-.2c-1.6-.2-3.6-3.3-4.6-8.6h9.4c-1 5.4-3 8.5-4.6 8.6zm-5.2-11.3c-.1-1.1-.2-2.3-.2-3.6s.1-2.5.2-3.6h10.1c.1 1.1.2 2.3.2 3.6s-.1 2.5-.2 3.6H12.8zm-10-3.7c0-1.3.2-2.5.5-3.6H10c-.1 1.2-.2 2.4-.2 3.6s.1 2.4.2 3.6H3.3c-.3-1.1-.5-2.3-.5-3.6zm14.9-15h.2c1.6.2 3.6 3.3 4.6 8.6h-9.4c1-5.3 3-8.4 4.6-8.6zm-4.9.9c-1.2 2-2 4.7-2.5 7.7h-6C6 7.8 9 5 12.8 3.7zM4.3 24.3h6c.5 3 1.3 5.7 2.5 7.7C9 30.6 6 27.8 4.3 24.3zM22.9 32c1.2-2 2-4.7 2.5-7.7h6c-1.7 3.5-4.8 6.3-8.5 7.7z"/></symbol><symbol id="info" viewBox="0 0 35.8 35.9"><path d="M17.9 12.7c1.2 0 2.1-.9 2.1-2.1 0-1.2-1-2.1-2.1-2.1s-2.1.9-2.1 2.1.9 2.1 2.1 2.1zm-1.8 2.7h3.5v12h-3.5v-12zM17.9 0C8 0 0 8.1 0 17.9c0 9.9 8 17.9 17.9 17.9 9.9 0 17.9-8 17.9-17.9 0-9.8-8-17.9-17.9-17.9zm0 32.5C9.9 32.5 3.4 26 3.4 18S9.9 3.5 17.9 3.5 32.4 10 32.4 18s-6.5 14.5-14.5 14.5z"/></symbol><symbol id="search" viewBox="0 0 35.5 35.7"><path d="M25.5 22.2c1.6-2.3 2.6-5.1 2.6-8.2 0-7.7-6.3-14-14-14C6.3 0 0 6.3 0 14.1s6.3 14.1 14.1 14.1c2.9 0 5.6-.9 7.8-2.4l9.7 9.6c.6.6 1.9.3 2.9-.7s1.3-2.3.7-2.9l-9.7-9.6zm-11.3 1.7c-5.5 0-9.9-4.4-9.9-9.9s4.4-9.9 9.9-9.9 9.9 4.4 9.9 9.9-4.4 9.9-9.9 9.9z"/></symbol><symbol id="link" viewBox="0 0 40 39.6"><path d="M34.6 20.8v17.1c0 .9-.7 1.6-1.6 1.6H1.6c-.9 0-1.6-.7-1.6-1.6V6.3c0-.9.7-1.6 1.6-1.6h17c.9 0 1.6.7 1.6 1.6S19.5 8 18.6 8H3.2v28.3h28.1V20.8c0-.9.7-1.6 1.6-1.6 1 0 1.7.7 1.7 1.6zM38.4 0H26.1c-.9 0-1.6.7-1.6 1.6s.7 1.6 1.6 1.6h8L16.6 20.6c-.3.3-.5.7-.5 1.2 0 .4.2.8.5 1.2.3.3.7.5 1.2.5.4 0 .8-.2 1.2-.5L36.7 5.3v8.4c0 .9.7 1.6 1.6 1.6s1.6-.7 1.6-1.6V1.6C40 .7 39.3 0 38.4 0z"/></symbol><symbol id="marker" viewBox="0 0 40 54.2"><path d="M20 30c5.3 0 9.5-4.3 9.5-9.5S25.2 11 20 11s-9.5 4.3-9.5 9.5S14.8 30 20 30zm0-15.3c3.1 0 5.7 2.5 5.7 5.7s-2.6 5.7-5.7 5.7-5.7-2.5-5.7-5.7 2.6-5.7 5.7-5.7zM20 0C9 0 0 9 0 20c0 4.5 1.5 8.9 4.2 12.3L20 54.2l15.7-21.8C38.5 29 40 24.6 40 20 40 9 31.1 0 20 0zm0 4c8.9 0 16.1 7.2 16.1 16.1 0 3.7-1.1 7.1-3.4 10L20 47.6 7.4 30.1C5.1 27.1 4 23.7 4 20c0-8.8 7.2-16 16-16z"/></symbol><symbol id="hours" viewBox="0 0 35.9 39.6"><path d="M31.4 3.9h-4.6V1.6c0-.9-.7-1.6-1.6-1.6-.9 0-1.6.7-1.6 1.6v2.3H12.2V1.6c0-.9-.7-1.6-1.6-1.6-.8 0-1.5.7-1.5 1.6v2.3H4.5C2 3.9 0 5.9 0 8.4v26.7c0 2.5 2 4.5 4.5 4.5h26.9c2.5 0 4.5-2 4.5-4.5V8.4c0-2.5-2-4.5-4.5-4.5zM4.5 7h4.6v2.3c0 .9.7 1.6 1.6 1.6.9 0 1.6-.7 1.6-1.6V7h11.4v2.3c0 .9.7 1.6 1.6 1.6.9 0 1.6-.7 1.6-1.6V7h4.6c.7 0 1.4.6 1.4 1.4v5.9H3.1V8.4c0-.8.6-1.4 1.4-1.4zm26.9 29.5H4.5c-.7 0-1.4-.6-1.4-1.4V17.4h29.6v17.7c.1.7-.5 1.4-1.3 1.4z"/></symbol><symbol id="sights" viewBox="0 0 36.3 39.8"><path d="M35.3 37.8h-1v-8.5c0-.6-.4-1-1-1H29v-6c0-.6-.4-1-1-1h-3.7V8.1c0-.6-.4-1-1-1H20V1c0-.6-.4-1-1-1s-1 .4-1 1v6.1h-3.3c-.6 0-1 .4-1 1v6.4H9.2c-.6 0-1 .4-1 1v7.1H3.4c-.6 0-1 .4-1 1v14.1H1c-.6 0-1 .4-1 1s.4 1 1 1h34.3c.6 0 1-.4 1-1s-.5-.9-1-.9zm-3-7.5v7.5h-6.2v-7.5h6.2zm-5.4-7v5H25c-.6 0-1 .4-1 1v8.5h-1.8V23.3h4.7zM15.6 9.1h6.7v12.1h-1c-.6 0-1 .4-1 1v15.5h-2.7V15.5c0-.6-.4-1-1-1h-1V9.1zm-5.4 7.4h5.4v21.2h-3.8V23.6c0-.6-.4-1-1-1h-.7v-6.1zm-5.8 8.1h5.4v13.1H4.4V24.6z"/></symbol><symbol id="phone" viewBox="0 0 35.9 35.9"><path d="M24.4 35.9c-5.6 0-11.8-2.6-16.8-7.6C-.7 19.9-2.5 8 3.7 1.7l.1-.1C5.8-.4 7.7-.1 9 .4c1.3.6 2.5 1.7 3.9 3.1 1.4 1.4 2.5 2.5 3 3.9.5 1.3.8 3.2-1.2 5.2-.8.8-1.7 1.4-2.8 1.8.8 1.9 2.2 3.9 3.9 5.7 1.8 1.8 3.8 3.1 5.7 3.9.4-1 1-2 1.8-2.8 3.6-3.6 6.9-.3 9.1 1.8s5.5 5.5 1.8 9.1l-.1.1c-2.5 2.5-5.9 3.7-9.7 3.7zM6.1 4.2c-4.8 5-3 14.7 3.9 21.7 7 7 16.7 8.8 21.7 3.9l.1-.1.1-.1c.9-.9 1-1.4-1.9-4.3-.9-.9-2-2-2.8-2.3-.3-.1-.7-.3-1.5.5-.7.7-1.2 1.7-1.3 2.7 0 .5-.3.9-.7 1.2-.4.3-.9.4-1.4.3-2.9-.6-6.2-2.6-8.9-5.3-2.8-2.8-4.7-6-5.3-9-.1-.5 0-1 .3-1.4.3-.4.7-.6 1.2-.7 1-.1 2-.5 2.7-1.3.8-.7.7-1 .5-1.4-.4-.8-1.4-1.9-2.3-2.8-.9-.9-2-2-2.8-2.3-.3-.1-.7-.3-1.5.5l-.1.2c0-.1 0-.1 0 0z"/></symbol><symbol id="star" viewBox="0 0 36.3 34.4"><path d="M34.7 12.4l-11.5-.6-4-10.6c-.6-1.6-1.6-1.6-2.2 0l-4 10.7-11.5.5c-1.7.1-2 1-.7 2.1l8.9 7.2s-1.9 6.9-3 11c-.4 1.6.3 2.2 1.8 1.3 3.6-2.3 9.6-6.3 9.6-6.3l9.6 6.3c1.4.9 2.2.4 1.8-1.3l-3-11 8.9-7.2c1.4-1 1.1-2-.7-2.1z"/></symbol><symbol id="tips" viewBox="0 0 35.9 35.9"><path d="M26.2 15.9H9.7c-.9 0-1.5.7-1.5 1.5.1.8.8 1.5 1.5 1.5h16.5c.8 0 1.5-.7 1.5-1.5 0-.9-.6-1.5-1.5-1.5zm0-7.3H9.7c-.9 0-1.5.7-1.5 1.5.1.8.8 1.5 1.5 1.5h16.5c.8 0 1.5-.7 1.5-1.5s-.6-1.5-1.5-1.5zM32.8 0H3.2C1.4 0 0 1.4 0 3.2v21.3c0 1.8 1.4 3.2 3.2 3.2h14.3l.1.1 9.4 7.8c.2.2.5.3.9.3.2 0 .4-.1.6-.2.5-.3.9-.8.9-1.4v-6.7h3.5c1.8 0 3.2-1.4 3.2-3.2V3.2C35.9 1.4 34.5 0 32.8 0zm.1 24.6h-5.1c-.9 0-1.5.7-1.5 1.5v5L19 24.9c-.2-.2-.5-.3-.9-.3H3V3h29.9v21.6z"/></symbol></svg>