<svg xmlns="http://www.w3.org/2000/svg" viewBox="0 0 35.9 35.9"><style type="text/css">
	.st0{fill:#808080;}
</style><path class="st0" d="M26 35.9H9.8C2.1 35.9 0 29.4 0 26V9.8c0-5.1 2.7-7.5 5-8.6C7.3 0 9.6 0 9.8 0H26c9.7 0 9.8 9.7 9.8 9.8V26C35.9 33.8 29.4 35.9 26 35.9zM9.8 3.4c-0.7 0-6.4 0.2-6.4 6.4V26c0 0.6 0.2 6.4 6.4 6.4H26c0.6 0 6.4-0.2 6.4-6.4V9.8c0-0.6-0.2-6.4-6.4-6.4H9.8z"/><path class="st0" d="M18 12.7c1.2 0 2.1-0.9 2.1-2.1S19.1 8.5 18 8.5c-1.1 0-2.1 0.9-2.1 2.1S16.8 12.7 18 12.7z"/><rect x="16.2" y="15.4" class="st0" width="3.5" height="12"/></svg>
