<svg xmlns="http://www.w3.org/2000/svg" viewBox="0 0 35.9 35.9"><style type="text/css">
	.st0{fill:#808080;}
</style><path class="st0" d="M26 35.9H9.8C2.1 35.9 0 29.4 0 26V9.8c0-5.1 2.7-7.5 5-8.6C7.3 0 9.6 0 9.8 0H26c9.7 0 9.8 9.7 9.8 9.8V26C35.9 33.8 29.4 35.9 26 35.9zM9.8 3.4c-0.7 0-6.4 0.2-6.4 6.4V26c0 0.6 0.2 6.4 6.4 6.4H26c0.6 0 6.4-0.2 6.4-6.4V9.8c0-0.6-0.2-6.4-6.4-6.4H9.8z"/><polygon class="st0" points="16.1 18.2 16.1 24.6 14.2 24.6 14.2 27.4 21.6 27.4 21.6 24.6 19.9 24.6 19.9 15.4 14.2 15.4 14.2 18.2 "/><path class="st0" d="M17.8 12.7c1.2 0 2.1-1 2.1-2.1 0-1.2-0.9-2.1-2.1-2.1 -1.2 0-2.1 0.9-2.1 2.1C15.7 11.8 16.7 12.7 17.8 12.7"/></svg>