<svg xmlns="http://www.w3.org/2000/svg" viewBox="0 0 40 39.6"><path d="M34.6 20.8v17.1c0 0.9-0.7 1.6-1.6 1.6H1.6c-0.9 0-1.6-0.7-1.6-1.6V6.3c0-0.9 0.7-1.6 1.6-1.6h17c0.9 0 1.6 0.7 1.6 1.6S19.5 8 18.6 8H3.2v28.3h28.1V20.8c0-0.9 0.7-1.6 1.6-1.6C33.9 19.2 34.6 19.9 34.6 20.8zM38.4 0H26.1c-0.9 0-1.6 0.7-1.6 1.6s0.7 1.6 1.6 1.6h8L16.6 20.6c-0.3 0.3-0.5 0.7-0.5 1.2 0 0.4 0.2 0.8 0.5 1.2 0.3 0.3 0.7 0.5 1.2 0.5 0.4 0 0.8-0.2 1.2-0.5L36.7 5.3v8.4c0 0.9 0.7 1.6 1.6 1.6s1.6-0.7 1.6-1.6V1.6C40 0.7 39.3 0 38.4 0z"/></svg>