<svg xmlns="http://www.w3.org/2000/svg" viewBox="0 0 69.7 100" xml:space="preserve"><path d="M19.2 74.1c3.1 3.9 6.2 8.7 7.9 11.6 2 3.8 2.8 6.4 4.3 11 .9 2.5 1.7 3.3 3.4 3.3 1.9 0 2.8-1.3 3.4-3.3 1.4-4.3 2.5-7.6 4.2-10.7C49 73.6 59.7 64.8 65.7 52.8c0 0 4-7.4 4-17.7 0-9.6-3.9-16.3-3.9-16.3L19.2 74.1z" fill="#34a853"/><path d="M3.4 51.4c3.8 8.5 10.9 16 15.8 22.6l25.9-30.7s-3.7 4.8-10.3 4.8c-7.4 0-13.4-5.9-13.4-13.3 0-5.1 3-8.6 3-8.6-18.9 2.9-17.9 7.5-21 25.2z" fill="#fbbc04"/><path d="M45.4 1.6c8.6 2.8 16 8.6 20.4 17.2L45.1 43.4s3-3.5 3-8.6c0-7.6-6.4-13.3-13.3-13.3-6.5 0-10.3 4.7-10.3 4.7 1.7-3.5 18.1-23.4 20.9-24.6z" fill="#4285f4"/><path d="M8.1 12.5C13.3 6.3 22.3 0 34.7 0c6 0 10.6 1.6 10.6 1.6L24.6 26.3c-1.4-.8-15.1-11.4-16.5-13.8z" fill="#1a73e8"/><path d="M3.4 51.4S0 44.7 0 35c0-9.2 3.6-17.3 8.1-22.5l16.4 13.8L3.4 51.4z" fill="#ea4335"/></svg>