<svg xmlns="http://www.w3.org/2000/svg" viewBox="0 0 40 54.1"><metadata><?xpacket begin="﻿" id="W5M0MpCehiHzreSzNTczkc9d"?>
<x:xmpmeta xmlns:x="adobe:ns:meta/" x:xmptk="Adobe XMP Core 5.6-c137 79.159768, 2016/08/11-13:24:42        ">
   <rdf:RDF xmlns:rdf="http://www.w3.org/1999/02/22-rdf-syntax-ns#">
      <rdf:Description rdf:about=""/>
   </rdf:RDF>
</x:xmpmeta>
                                                                                                    
                                                                                                    
                                                                                                    
                                                                                                    
                                                                                                    
                                                                                                    
                                                                                                    
                                                                                                    
                                                                                                    
                                                                                                    
                                                                                                    
                                                                                                    
                                                                                                    
                                                                                                    
                                                                                                    
                                                                                                    
                                                                                                    
                                                                                                    
                                                                                                    
                                                                                                    
                           
<?xpacket end="w"?></metadata>
<path d="M20 0C9 0 0 9 0 20c0 4.5 1.5 8.9 4.2 12.3L20 54.1l15.7-21.8C38.5 28.9 40 24.5 40 20 40 9 31 0 20 0zm13 30.3l-13 18-13-18c-2.3-3-3.5-6.5-3.5-10.3 0-9.1 7.4-16.5 16.5-16.5S36.5 10.9 36.5 20c0 3.8-1.2 7.3-3.5 10.3zM20 11c-5.2 0-9.4 4.2-9.4 9.4s4.2 9.4 9.4 9.4 9.4-4.2 9.4-9.4S25.2 11 20 11zm0 15.4c-3.3 0-6-2.7-6-6s2.7-6 6-6 6 2.7 6 6-2.7 6-6 6z"/></svg>