<svg xmlns="http://www.w3.org/2000/svg" viewBox="0 0 35.9 35.9"><style type="text/css">
	.st0{fill:#808080;}
</style><path class="st0" d="M24.4 35.9c-5.6 0-11.8-2.6-16.8-7.6C-0.7 19.9-2.5 8 3.7 1.7c0 0 0 0 0 0 0 0 0.1-0.1 0.1-0.1 2-2 3.9-1.7 5.2-1.2 1.3 0.6 2.5 1.7 3.9 3.1 1.4 1.4 2.5 2.5 3 3.9 0.5 1.3 0.8 3.2-1.2 5.2 -0.8 0.8-1.7 1.4-2.8 1.8 0.8 1.9 2.2 3.9 3.9 5.7 1.8 1.8 3.8 3.1 5.7 3.9 0.4-1 1-2 1.8-2.8 3.6-3.6 6.9-0.3 9.1 1.8s5.5 5.5 1.8 9.1c0 0-0.1 0.1-0.1 0.1 0 0 0 0 0 0C31.6 34.7 28.2 35.9 24.4 35.9zM6.1 4.2c-4.8 5-3 14.7 3.9 21.7 7 7 16.7 8.8 21.7 3.9 0 0 0.1-0.1 0.1-0.1 0 0 0.1-0.1 0.1-0.1 0.9-0.9 1-1.4-1.9-4.3 -0.9-0.9-2-2-2.8-2.3 -0.3-0.1-0.7-0.3-1.5 0.5 -0.7 0.7-1.2 1.7-1.3 2.7 0 0.5-0.3 0.9-0.7 1.2 -0.4 0.3-0.9 0.4-1.4 0.3 -2.9-0.6-6.2-2.6-8.9-5.3 -2.8-2.8-4.7-6-5.3-9 -0.1-0.5 0-1 0.3-1.4 0.3-0.4 0.7-0.6 1.2-0.7 1-0.1 2-0.5 2.7-1.3C13.1 9.3 13 9 12.8 8.6c-0.4-0.8-1.4-1.9-2.3-2.8 -0.9-0.9-2-2-2.8-2.3C7.4 3.4 7 3.2 6.2 4L6.1 4.2C6.1 4.1 6.1 4.1 6.1 4.2z"/></svg>
