<svg xmlns="http://www.w3.org/2000/svg" width="35.9" height="35.9" viewBox="0 0 35.9 35.9"><metadata><?xpacket begin="﻿" id="W5M0MpCehiHzreSzNTczkc9d"?>
<x:xmpmeta xmlns:x="adobe:ns:meta/" x:xmptk="Adobe XMP Core 5.6-c137 79.159768, 2016/08/11-13:24:42        ">
   <rdf:RDF xmlns:rdf="http://www.w3.org/1999/02/22-rdf-syntax-ns#">
      <rdf:Description rdf:about=""/>
   </rdf:RDF>
</x:xmpmeta>
                                                                                                    
                                                                                                    
                                                                                                    
                                                                                                    
                                                                                                    
                                                                                                    
                                                                                                    
                                                                                                    
                                                                                                    
                                                                                                    
                                                                                                    
                                                                                                    
                                                                                                    
                                                                                                    
                                                                                                    
                                                                                                    
                                                                                                    
                                                                                                    
                                                                                                    
                                                                                                    
                           
<?xpacket end="w"?></metadata>
<path d="M24.4 35.9c-5.6 0-11.8-2.6-16.8-7.6C-.7 19.9-2.5 8 3.7 1.7l.1-.1C5.8-.4 7.7-.1 9 .4c1.3.6 2.5 1.7 3.9 3.1 1.4 1.4 2.5 2.5 3 3.9.5 1.3.8 3.2-1.2 5.2-.8.8-1.7 1.4-2.8 1.8.8 1.9 2.2 3.9 3.9 5.7 1.8 1.8 3.8 3.1 5.7 3.9.4-1 1-2 1.8-2.8 3.6-3.6 6.9-.3 9.1 1.8s5.5 5.5 1.8 9.1l-.1.1c-2.5 2.5-5.9 3.7-9.7 3.7zM6.1 4.2c-4.8 5-3 14.7 3.9 21.7 7 7 16.7 8.8 21.7 3.9l.1-.1.1-.1c.9-.9 1-1.4-1.9-4.3-.9-.9-2-2-2.8-2.3-.3-.1-.7-.3-1.5.5-.7.7-1.2 1.7-1.3 2.7 0 .5-.3.9-.7 1.2-.4.3-.9.4-1.4.3-2.9-.6-6.2-2.6-8.9-5.3-2.8-2.8-4.7-6-5.3-9-.1-.5 0-1 .3-1.4.3-.4.7-.6 1.2-.7 1-.1 2-.5 2.7-1.3.8-.7.7-1 .5-1.4-.4-.8-1.4-1.9-2.3-2.8-.9-.9-2-2-2.8-2.3-.3-.1-.7-.3-1.5.5l-.1.2c0-.1 0-.1 0 0z"/></svg>