<svg xmlns="http://www.w3.org/2000/svg" viewBox="0 0 100 100"><style type="text/css">
	.st0{fill:#9B9B9B;}
</style><path class="st0" d="M81.1 41.8V33c0.1-0.3 0.1-0.7-0.1-1l-7.7-10.7c-0.2-0.3-0.5-0.4-0.9-0.4h-45c-0.3 0-0.7 0.2-0.9 0.4l-7.7 10.7c0 0 0 0 0 0 0 0.1-0.1 0.1-0.1 0.2 0 0 0 0 0 0.1 0 0.1 0 0.1 0 0.2 0 0 0 0 0 0.1 0 0 0 0 0 0v9.1c0 2.3 1.4 4.2 3.5 5v23.8h-0.5c-1.5 0-2.7 1.2-2.7 2.7v3.2c0 1.5 1.2 2.7 2.7 2.7h56.8c1.5 0 2.7-1.2 2.7-2.7v-3.2c0-1.5-1.2-2.7-2.7-2.7h-0.7V46.8C79.6 46 81.1 44.1 81.1 41.8zM79 41.8c0 1.8-1.5 3.3-3.3 3.3 -1.8 0-3.3-1.5-3.3-3.3v-8.1h2.1H79V41.8zM70.3 41.8c0 1.8-1.5 3.3-3.3 3.3s-3.3-1.5-3.3-3.3v-8.1h6.5V41.8zM61.7 41.8c0 1.8-1.5 3.3-3.3 3.3 -1.8 0-3.3-1.5-3.3-3.3v-8.1h6.5V41.8zM53.1 41.8c0 1.8-1.5 3.3-3.3 3.3s-3.3-1.5-3.3-3.3v-8.1h6.5V41.8zM44.5 41.8c0 1.8-1.5 3.3-3.3 3.3 -1.8 0-3.3-1.5-3.3-3.3v-8.1h6.5V41.8zM35.8 41.8c0 1.8-1.5 3.3-3.3 3.3s-3.3-1.5-3.3-3.3v-8.1h6.5V41.8zM27.9 23h43.9l6.2 8.6h-3.7 -2.9 -8.6 -8.6 -8.6 -8.6 -8.6 -2.8 -3.7L27.9 23zM20.7 41.8v-8.1h4.6 1.9v8.1c0 1.8-1.5 3.3-3.3 3.3C22.2 45.1 20.7 43.6 20.7 41.8zM78.8 73.3v3.2c0 0.3-0.2 0.5-0.5 0.5H21.5c-0.3 0-0.5-0.2-0.5-0.5v-3.2c0-0.3 0.2-0.5 0.5-0.5h1.6 33.2 13 7.3 1.8C78.6 72.8 78.8 73 78.8 73.3zM68.2 70.6H57.3V55.1c0-3 2.4-5.5 5.5-5.5s5.5 2.4 5.5 5.5V70.6zM70.4 70.6V55.1c0-4.2-3.4-7.6-7.6-7.6s-7.6 3.4-7.6 7.6v15.5h-31V47.2c1.7-0.1 3.2-0.9 4.1-2.2 1 1.3 2.5 2.2 4.3 2.2 1.8 0 3.3-0.9 4.3-2.2 1 1.3 2.5 2.2 4.3 2.2 1.8 0 3.3-0.9 4.3-2.2 1 1.3 2.5 2.2 4.3 2.2 1.8 0 3.3-0.9 4.3-2.2 1 1.3 2.5 2.2 4.3 2.2 1.8 0 3.3-0.9 4.3-2.2 1 1.3 2.5 2.2 4.3 2.2s3.3-0.9 4.3-2.2c0.9 1.3 2.4 2.1 4.1 2.2v23.5H70.4z"/></svg>
