<svg xmlns="http://www.w3.org/2000/svg" viewBox="0 0 36.3 39.8" width="36.3" height="39.8"><path d="M35.3 37.8h-1v-8.5c0-.6-.4-1-1-1H29v-6c0-.6-.4-1-1-1h-3.7V8.1c0-.6-.4-1-1-1H20V1c0-.6-.4-1-1-1s-1 .4-1 1v6.1h-3.3c-.6 0-1 .4-1 1v6.4H9.2c-.6 0-1 .4-1 1v7.1H3.4c-.6 0-1 .4-1 1v14.1H1c-.6 0-1 .4-1 1s.4 1 1 1h34.3c.6 0 1-.4 1-1s-.5-.9-1-.9zm-3-7.5v7.5h-6.2v-7.5h6.2zm-5.4-7v5H25c-.6 0-1 .4-1 1v8.5h-1.8V23.3h4.7zM15.6 9.1h6.7v12.1h-1c-.6 0-1 .4-1 1v15.5h-2.7V15.5c0-.6-.4-1-1-1h-1V9.1zm-5.4 7.4h5.4v21.2h-3.8V23.6c0-.6-.4-1-1-1h-.7v-6.1zm-5.8 8.1h5.4v13.1H4.4V24.6z"/></svg>