<svg xmlns="http://www.w3.org/2000/svg" width="35.9" height="35.9" viewBox="0 0 35.9 35.9"><path d="M26.2 15.9H9.7c-.9 0-1.5.7-1.5 1.5.1.8.8 1.5 1.5 1.5h16.5c.8 0 1.5-.7 1.5-1.5 0-.9-.6-1.5-1.5-1.5zm0-7.3H9.7c-.9 0-1.5.7-1.5 1.5.1.8.8 1.5 1.5 1.5h16.5c.8 0 1.5-.7 1.5-1.5s-.6-1.5-1.5-1.5zM32.8 0H3.2C1.4 0 0 1.4 0 3.2v21.3c0 1.8 1.4 3.2 3.2 3.2h14.3l.1.1 9.4 7.8c.2.2.5.3.9.3.2 0 .4-.1.6-.2.5-.3.9-.8.9-1.4v-6.7h3.5c1.8 0 3.2-1.4 3.2-3.2V3.2C35.9 1.4 34.5 0 32.8 0zm.1 24.6h-5.1c-.9 0-1.5.7-1.5 1.5v5L19 24.9c-.2-.2-.5-.3-.9-.3H3V3h29.9v21.6z"/></svg>