<svg xmlns="http://www.w3.org/2000/svg" viewBox="0 0 35.9 35.9"><style type="text/css">
	.st0{fill:#231F20;}
</style><circle class="st0" cx="9.7" cy="13.6" r="2.1"/><circle class="st0" cx="17.9" cy="13.6" r="2.1"/><circle class="st0" cx="26.2" cy="13.6" r="2.1"/><path class="st0" d="M27.1 0H8.7C5.7 0 0 1.8 0 8.7v9.9c0 3 1.8 8.7 8.7 8.7h8.7l8 7.9c0.6 0.6 1.2 0.7 1.6 0.7 0.3 0 0.6-0.1 0.8-0.1 0.8-0.3 1.3-1.1 1.3-2.1V27c3.4-0.7 6.8-3.2 6.8-8.4V8.7C35.9 5.7 34 0 27.1 0zM32.4 18.6c0 4.4-3.6 5.1-5.1 5.2l-1.6 0.1v6.6l-6.8-6.7H8.7c-0.9 0-5.2-0.3-5.3-5.2V8.7c0-0.9 0.3-5.2 5.3-5.2h18.4c0.9 0 5.2 0.3 5.3 5.2V18.6z"/></svg>
