<svg xmlns="http://www.w3.org/2000/svg" viewBox="0 0 35.9 35.9"><style type="text/css">
	.st0{fill:#808080;}
</style><circle class="st0" cx="18" cy="14.3" r="2.2"/><circle class="st0" cx="9" cy="14.3" r="2.2"/><circle class="st0" cx="26.9" cy="14.3" r="2.2"/><path class="st0" d="M27 0H8.9C5.8 0 0 1.8 0 8.4v11.9c0 2.9 1.9 8.3 8.9 8.3H13l3.5 6.4c0.3 0.6 0.9 0.9 1.5 0.9 0 0 0 0 0 0 0.6 0 1.2-0.3 1.5-0.9l3.5-6.4H27c3.1 0 8.9-1.7 8.9-8.3V8.4C35.9 5.5 34 0 27 0zM32.5 20.2c0 4.7-4.9 4.9-5.4 4.9h-5.1c-0.6 0-1.2 0.3-1.5 0.9L18 30.5 15.5 26c-0.3-0.6-0.9-0.9-1.5-0.9H8.9c-5.1 0-5.4-4.1-5.4-4.9V8.4c0-4.7 4.9-4.9 5.4-4.9H27c5.1 0 5.4 4.1 5.4 4.9V20.2z"/></svg>
